<svg xmlns="http://www.w3.org/2000/svg" version="1.1" viewBox="0 0 1000 1000">
  <defs>
    <linearGradient id="myGrey" x1="0%" y1="0%" x2="100%" y2="0%">
      <stop offset="0%" style="stop-color:rgb(0,0,0);stop-opacity:1" />
      <stop offset="100%" style="stop-color:rgb(80,80,80);stop-opacity:1" />
    </linearGradient>
    <pattern id="img1" patternContentUnits="objectBoundingBox" width="100%" height="100%">
      <image href="lion.jpg" x="0" y="0" height="1" width="1" preserveAspectRatio="none" />
    </pattern>
    <filter id="shadow" x="0" y="0">
      <feGaussianBlur stdDeviation="5" />
      <feOffset dx="15" dy="15" />
    </filter>

    <filter id="MyFilter" filterUnits="userSpaceOnUse" x="0" y="0" width="1000" height="1000">
      <feGaussianBlur in="SourceAlpha" stdDeviation="8" result="blur" />
      <feSpecularLighting in="blur" surfaceScale="10" specularConstant=".75" specularExponent="20" lighting-color="#bbbbbb" result="specOut">
        <fePointLight x="-10000" y="-10000" z="20000" />
      </feSpecularLighting>
      <feComposite in="SourceGraphic" in2="specOut" operator="arithmetic" k1="0" k2="1" k3="1" k4="0" result="litPaint" />
    </filter>

    <radialGradient
      id="lenz_light"
      spreadMethod="pad"
    >
      <stop offset="0%" style="stop-color:rgb(255,255,233);stop-opacity:1" />
      <stop offset="20%" style="stop-color:rgb(255,223,93);stop-opacity:1" />
      <stop offset="30%" style="stop-color:rgb(242,160,62);stop-opacity:1" />
      <stop offset="70%" style="stop-color:rgb(149,101,46);stop-opacity:1" />
      <stop offset="100%" style="stop-color:rgb(210,179,92);stop-opacity:1" />
      <animate
        attributeName="cx"
        values="0; 0; 0.23; 1; 1; 0.77;0;"
        dur="5s"
        repeatCount="indefinite"
      />
      <animate
        attributeName="cy"
        values="1; 0.23; 0; 0; 0.77; 1;1;"
        dur="5s"
        repeatCount="indefinite"
      />
    </radialGradient>
  </defs>
  <g>
    <path 
      id="top_black" 
      d="M386,183 L466,104 772,104 C772,104 779,104 779,111, L779,183 Z"
      fill="black"
      >
    </path>    
    <path 
      id="left_black" 
      d="M128,277 L217,187 275,187 128,336 Z"
      fill="black"
      >
    </path>
    <path 
      id="shadow_frame" 
      d="M812,189 C812,189 822,189 822,199 L822,727 667,882 C140,879 130,879 130,869"
      stroke="grey"
      stroke-linecap="round"
      stroke-linejoin="arcs"
      stroke-width="20"
      fill="none"
      filter="url(#shadow)"
      >
    </path>
    <text 
      x="0" 
      y="0" 
      dx="815" 
      dy="357" 
      transform="rotate(90 815,357)"
      style="font-size:9em;
          fill:#000000;
          font-weight: bold;
          font-family:'Arial';
          "
    >
      HIANTA
    </text>
    <path 
      id="main_frame" 
      d="M130,343 L281,189 812,189 C812,189 822,189 822,199 L822,727 667,882 C140,879 130,879 130,869 Z"
      stroke="url(#lenz_light)"
      stroke-linecap="round"
      stroke-linejoin="arcs"
      stroke-width="20"
      fill="none"
      filter="url(#MyFilter)"
      >
    </path>
  </g>
</svg>